<mxfile host="app.diagrams.net" modified="2022-07-23T06:57:26.112Z" agent="5.0 (Windows NT 6.1; Win64; x64) AppleWebKit/537.36 (KHTML, like Gecko) Chrome/103.0.0.0 Safari/537.36" etag="vMkrili9hEIR6GoUXEgP" version="20.2.0" type="github">
  <diagram id="0FjT6JAuaOevQXNu-w0u" name="Page-1">
    <mxGraphModel dx="1357" dy="802" grid="1" gridSize="10" guides="1" tooltips="1" connect="1" arrows="1" fold="1" page="1" pageScale="1" pageWidth="850" pageHeight="1100" math="0" shadow="0">
      <root>
        <mxCell id="0" />
        <mxCell id="1" parent="0" />
        <mxCell id="5YlN5kL-GUvDBQOjNZ4R-1" value="" style="rounded=0;whiteSpace=wrap;html=1;" vertex="1" parent="1">
          <mxGeometry x="305" y="40" width="405" height="160" as="geometry" />
        </mxCell>
        <mxCell id="5YlN5kL-GUvDBQOjNZ4R-2" value="测试" style="shape=table;startSize=30;container=1;collapsible=0;childLayout=tableLayout;fontStyle=1;align=center;fillColor=#d5e8d4;strokeColor=#82b366;" vertex="1" parent="1">
          <mxGeometry x="220" y="250" width="220" height="210" as="geometry" />
        </mxCell>
        <mxCell id="5YlN5kL-GUvDBQOjNZ4R-3" value="" style="shape=tableRow;horizontal=0;startSize=0;swimlaneHead=0;swimlaneBody=0;top=0;left=0;bottom=0;right=0;collapsible=0;dropTarget=0;fillColor=none;points=[[0,0.5],[1,0.5]];portConstraint=eastwest;" vertex="1" parent="5YlN5kL-GUvDBQOjNZ4R-2">
          <mxGeometry y="30" width="220" height="60" as="geometry" />
        </mxCell>
        <mxCell id="5YlN5kL-GUvDBQOjNZ4R-4" value="" style="shape=partialRectangle;html=1;whiteSpace=wrap;connectable=0;fillColor=none;top=0;left=0;bottom=0;right=0;overflow=hidden;" vertex="1" parent="5YlN5kL-GUvDBQOjNZ4R-3">
          <mxGeometry width="73" height="60" as="geometry">
            <mxRectangle width="73" height="60" as="alternateBounds" />
          </mxGeometry>
        </mxCell>
        <mxCell id="5YlN5kL-GUvDBQOjNZ4R-5" value="" style="shape=partialRectangle;html=1;whiteSpace=wrap;connectable=0;fillColor=none;top=0;left=0;bottom=0;right=0;overflow=hidden;" vertex="1" parent="5YlN5kL-GUvDBQOjNZ4R-3">
          <mxGeometry x="73" width="74" height="60" as="geometry">
            <mxRectangle width="74" height="60" as="alternateBounds" />
          </mxGeometry>
        </mxCell>
        <mxCell id="5YlN5kL-GUvDBQOjNZ4R-6" value="" style="shape=partialRectangle;html=1;whiteSpace=wrap;connectable=0;fillColor=none;top=0;left=0;bottom=0;right=0;overflow=hidden;" vertex="1" parent="5YlN5kL-GUvDBQOjNZ4R-3">
          <mxGeometry x="147" width="73" height="60" as="geometry">
            <mxRectangle width="73" height="60" as="alternateBounds" />
          </mxGeometry>
        </mxCell>
        <mxCell id="5YlN5kL-GUvDBQOjNZ4R-7" value="" style="shape=tableRow;horizontal=0;startSize=0;swimlaneHead=0;swimlaneBody=0;top=0;left=0;bottom=0;right=0;collapsible=0;dropTarget=0;fillColor=none;points=[[0,0.5],[1,0.5]];portConstraint=eastwest;" vertex="1" parent="5YlN5kL-GUvDBQOjNZ4R-2">
          <mxGeometry y="90" width="220" height="60" as="geometry" />
        </mxCell>
        <mxCell id="5YlN5kL-GUvDBQOjNZ4R-8" value="" style="shape=partialRectangle;html=1;whiteSpace=wrap;connectable=0;fillColor=none;top=0;left=0;bottom=0;right=0;overflow=hidden;" vertex="1" parent="5YlN5kL-GUvDBQOjNZ4R-7">
          <mxGeometry width="73" height="60" as="geometry">
            <mxRectangle width="73" height="60" as="alternateBounds" />
          </mxGeometry>
        </mxCell>
        <mxCell id="5YlN5kL-GUvDBQOjNZ4R-9" value="45" style="shape=partialRectangle;html=1;whiteSpace=wrap;connectable=0;fillColor=#fff2cc;top=0;left=0;bottom=0;right=0;overflow=hidden;strokeColor=#d6b656;" vertex="1" parent="5YlN5kL-GUvDBQOjNZ4R-7">
          <mxGeometry x="73" width="74" height="60" as="geometry">
            <mxRectangle width="74" height="60" as="alternateBounds" />
          </mxGeometry>
        </mxCell>
        <mxCell id="5YlN5kL-GUvDBQOjNZ4R-10" value="4" style="shape=partialRectangle;html=1;whiteSpace=wrap;connectable=0;fillColor=#dae8fc;top=0;left=0;bottom=0;right=0;overflow=hidden;strokeColor=#6c8ebf;" vertex="1" parent="5YlN5kL-GUvDBQOjNZ4R-7">
          <mxGeometry x="147" width="73" height="60" as="geometry">
            <mxRectangle width="73" height="60" as="alternateBounds" />
          </mxGeometry>
        </mxCell>
        <mxCell id="5YlN5kL-GUvDBQOjNZ4R-11" value="" style="shape=tableRow;horizontal=0;startSize=0;swimlaneHead=0;swimlaneBody=0;top=0;left=0;bottom=0;right=0;collapsible=0;dropTarget=0;fillColor=none;points=[[0,0.5],[1,0.5]];portConstraint=eastwest;" vertex="1" parent="5YlN5kL-GUvDBQOjNZ4R-2">
          <mxGeometry y="150" width="220" height="60" as="geometry" />
        </mxCell>
        <mxCell id="5YlN5kL-GUvDBQOjNZ4R-12" value="" style="shape=partialRectangle;html=1;whiteSpace=wrap;connectable=0;fillColor=none;top=0;left=0;bottom=0;right=0;overflow=hidden;" vertex="1" parent="5YlN5kL-GUvDBQOjNZ4R-11">
          <mxGeometry width="73" height="60" as="geometry">
            <mxRectangle width="73" height="60" as="alternateBounds" />
          </mxGeometry>
        </mxCell>
        <mxCell id="5YlN5kL-GUvDBQOjNZ4R-13" value="" style="shape=partialRectangle;html=1;whiteSpace=wrap;connectable=0;fillColor=none;top=0;left=0;bottom=0;right=0;overflow=hidden;" vertex="1" parent="5YlN5kL-GUvDBQOjNZ4R-11">
          <mxGeometry x="73" width="74" height="60" as="geometry">
            <mxRectangle width="74" height="60" as="alternateBounds" />
          </mxGeometry>
        </mxCell>
        <mxCell id="5YlN5kL-GUvDBQOjNZ4R-14" value="" style="shape=partialRectangle;html=1;whiteSpace=wrap;connectable=0;fillColor=none;top=0;left=0;bottom=0;right=0;overflow=hidden;" vertex="1" parent="5YlN5kL-GUvDBQOjNZ4R-11">
          <mxGeometry x="147" width="73" height="60" as="geometry">
            <mxRectangle width="73" height="60" as="alternateBounds" />
          </mxGeometry>
        </mxCell>
      </root>
    </mxGraphModel>
  </diagram>
</mxfile>
